<svg xmlns="http://www.w3.org/2000/svg" fill="none" width="100" height="100" viewBox="0 0 100 100">
  <path fill="url(#a)" fill-rule="evenodd" d="M71.43 16.26 84.05 3.68a2.38 2.38 0 0 1 3.33 0L100 16.26V64.9a31.95 31.95 0 0 1-16.96 28.3A32.23 32.23 0 0 1 50 91.6 32.21 32.21 0 0 1 4.55 81.4 31.96 31.96 0 0 1 0 64.9V28.12a2.37 2.37 0 0 1 2.38-2.37h26.2v32.98a7.13 7.13 0 1 0 7.91 11.82 7.12 7.12 0 0 0-.78-11.82V25.75H64.3v32.98a7.13 7.13 0 1 0 7.92 11.82 7.12 7.12 0 0 0-.78-11.82V16.26Z" clip-rule="evenodd"/>
  <defs>
    <linearGradient id="a" x1="100" x2="4.86" y1="3" y2="101.44" gradientUnits="userSpaceOnUse">
      <stop stop-color="#EF2E12"/>
      <stop offset="1" stop-color="#184CEF"/>
    </linearGradient>
  </defs>
</svg>
